<?xml version="1.0" standalone="no"?><!DOCTYPE svg PUBLIC "-//W3C//DTD SVG 1.1//EN" "http://www.w3.org/Graphics/SVG/1.1/DTD/svg11.dtd"><svg t="1754576498304" class="icon" viewBox="0 0 1024 1024" version="1.1" xmlns="http://www.w3.org/2000/svg" p-id="6579" xmlns:xlink="http://www.w3.org/1999/xlink" width="200" height="200"><path d="M158.602 699.246h844.046v290.652H158.602L57.258 939.68l-33.78-117.34 52.436-89.312zM123.476 496.158h815.174v144H123.476z" fill="#E6E9ED" p-id="6580"></path><path d="M582.656 30.978c0-11.782-9.562-21.312-21.344-21.312-2.5 0-4.876 0.438-7.094 1.218-24.688 7.656-67.936 38.282-63.53 103.28 0.782 11.28 10.154 19.906 21.28 19.906 0.468 0 0.968-0.032 1.468-0.062 11.75-0.782 20.624-10.968 19.844-22.718-3.188-46.874 30.376-58.656 34.188-59.842l-0.218 0.062-0.032-0.032c8.906-2.562 15.438-10.782 15.438-20.5z" fill="#434A54" p-id="6581"></path><path d="M277.316 865.028H149.32c-11.782 0-21.312-9.562-21.312-21.344S137.54 822.34 149.32 822.34h127.996c11.782 0 21.344 9.562 21.344 21.344s-9.562 21.344-21.344 21.344zM767.994 758.34c-11.812 0-21.342 9.562-21.342 21.344s9.53 21.344 21.342 21.344h234.654V758.34H767.994zM661.31 865.028H362.66c-11.782 0-21.344-9.562-21.344-21.344s9.562-21.344 21.344-21.344h298.65c11.782 0 21.344 9.562 21.344 21.344s-9.562 21.344-21.344 21.344zM895.994 886.34c-11.812 0-21.344 9.558-21.344 21.34s9.532 21.344 21.344 21.344h106.654V886.34h-106.654zM533.312 587.688H362.66c-11.782 0-21.344-9.562-21.344-21.344s9.562-21.312 21.344-21.312h170.652c11.782 0 21.344 9.532 21.344 21.312s-9.562 21.344-21.344 21.344zM853.306 545.032c-11.782 0-21.312 9.532-21.312 21.312s9.532 21.344 21.312 21.344h85.344v-42.656h-85.344z" fill="#CCD1D9" p-id="6582"></path><path d="M689.404 129.57c-26.876-34.718-65.686-53.874-109.31-53.874-21.844 0-44.688 4.686-68.094 13.936-23.436-9.25-46.28-13.936-68.092-13.936-43.656 0-82.466 19.156-109.342 53.874-24.938 32.218-38.656 76.906-38.656 125.78 0 50.342 19.438 101.906 53.282 141.466 34.218 39.966 78.686 62.874 122.03 62.874a119.66 119.66 0 0 0 40.78-7.094c13.062 4.718 26.718 7.094 40.75 7.094 43.344 0 87.812-22.906 122.03-62.874 33.844-39.562 53.28-91.124 53.28-141.466-0.004-48.876-13.752-93.53-38.658-125.78z" fill="#A0D468" p-id="6583"></path><path d="M490.658 452.594a119.44 119.44 0 0 1-30.094 6.624c3.562 0.312 7.094 0.468 10.656 0.468a119.86 119.86 0 0 0 30.092-3.812 115.472 115.472 0 0 1-10.654-3.28zM689.404 129.57c-26.876-34.718-65.686-53.874-109.31-53.874-3.594 0-7.188 0.156-10.844 0.406 39.344 2.812 74.124 21.562 98.81 53.466 24.938 32.25 38.656 76.906 38.656 125.78 0 50.342-19.406 101.906-53.282 141.466-31.404 36.686-71.466 58.998-111.374 62.404 3.532 0.312 7.094 0.468 10.688 0.468 43.344 0 87.812-22.906 122.03-62.874 33.844-39.562 53.28-91.124 53.28-141.466 0-48.872-13.748-93.526-38.654-125.776z" fill="#FFFFFF" opacity=".2" p-id="6584"></path><path d="M938.65 630.344H192.006c-35.31 0-63.998-28.688-63.998-64 0-35.282 28.688-64 63.998-64H938.65c11.78 0 21.342-9.532 21.342-21.312s-9.562-21.344-21.342-21.344H192.006c-58.842 0-106.686 47.844-106.686 106.656 0 58.844 47.844 106.688 106.686 106.688h746.644c11.78 0 21.342-9.562 21.342-21.344s-9.562-21.344-21.342-21.344z" fill="#5D9CEC" p-id="6585"></path><path d="M1002.648 971.68H170.664c-70.594 0-128-57.406-128-127.996 0-70.562 57.406-128 128-128h831.984c11.782 0 21.342-9.562 21.342-21.344 0-11.778-9.56-21.308-21.342-21.308H170.664c-94.124 0-170.654 76.558-170.654 170.652 0 94.09 76.53 170.652 170.654 170.652h831.984c11.782 0 21.342-9.532 21.342-21.312s-9.56-21.344-21.342-21.344z" fill="#A0D468" p-id="6586"></path><path d="M149.32 843.684v63.996c0 7.406 3.844 14.25 10.124 18.156a21.33 21.33 0 0 0 20.748 0.938l33.124-16.562 33.124 16.562a21.456 21.456 0 0 0 9.532 2.25c3.906 0 7.812-1.062 11.216-3.188a21.312 21.312 0 0 0 10.124-18.156v-63.996H149.32z" fill="#ED5564" p-id="6587"></path></svg>