<svg xmlns="http://www.w3.org/2000/svg" width="512" height="512" viewBox="0 0 100 100">
    <path fill="currentColor"
        d="M52.506 7.078a124 124 0 0 1 7.838 12.91a7.5 7.5 0 0 1 1.043-.074a7.5 7.5 0 0 1 6.748 4.23a138 138 0 0 1 10.039-.53q2.896-.044 5.818.032C76.611 14.131 65.324 7.811 52.506 7.078m-6.078.08c-.147.012-.295.02-.442.033c-3.375 6.906-6.015 13.73-7.902 20.465a7.5 7.5 0 0 1 2.082 1.916a141 141 0 0 1 13.83-3.43a7.5 7.5 0 0 1 1.92-3.857c-2.697-5.114-5.85-10.158-9.488-15.127m-6.44 1.022a42.95 42.95 0 0 0-25.572 17.64a171 171 0 0 1 13.697 3.748a7.5 7.5 0 0 1 5.131-2.978c1.675-6.103 3.923-12.245 6.744-18.41m41.123 20.418c-4.182-.027-8.32.144-12.418.5a7.5 7.5 0 0 1-2.472 4.048a108 108 0 0 1 3.517 11.327a7.5 7.5 0 0 1 5.043 2.746a140 140 0 0 1 17.674-4.065a42.7 42.7 0 0 0-5.037-14.367q-3.17-.167-6.307-.19M11.732 30.36a42.7 42.7 0 0 0-4.285 13.446c6.292-3.612 12.691-6.764 19.2-9.438l-.002-.03c-4.832-1.542-9.81-2.855-14.913-3.978m43.094.684a135 135 0 0 0-13.193 3.27a8 8 0 0 1-.014.255a142.7 142.7 0 0 1 22.248 11.844a7.5 7.5 0 0 1 1.057-.81a102 102 0 0 0-3.336-10.694l-.201.004a7.5 7.5 0 0 1-6.56-3.87m-26.32 7.941C21.215 41.99 14.05 45.627 7.004 49.861L7 50c0 11.366 4.393 21.678 11.566 29.357a167 167 0 0 1 12.791-10.355c-1.88-9.299-2.153-18.805-.921-28.445a7.5 7.5 0 0 1-1.93-1.57m11.121.159a7.5 7.5 0 0 1-4.36 2.304c-1.052 8.295-.902 16.446.508 24.444c8.158-5.535 16.712-10.189 25.672-13.914v-.047a7.5 7.5 0 0 1 .082-1.09a137 137 0 0 0-21.902-11.697m53.326 8.994a135 135 0 0 0-16.506 3.808a7.5 7.5 0 0 1-.699 3.147a140 140 0 0 1 13.469 12.572A42.9 42.9 0 0 0 93 50c0-.624-.02-1.244-.047-1.861m-29.818 8.529c-9.176 3.831-17.911 8.683-26.239 14.506c1.82 7.338 4.717 14.543 8.729 21.607Q47.783 93 50 93c5.832 0 11.387-1.16 16.453-3.254c1.693-10.414 2.026-20.571.932-30.48a7.5 7.5 0 0 1-4.25-2.598m9.181 2.06c1.03 9.25.875 18.69-.41 28.292a43.1 43.1 0 0 0 14.848-14.655A136 136 0 0 0 72.316 58.73m-39.71 15.555a164 164 0 0 0-10.409 8.535a42.8 42.8 0 0 0 17.162 8.858c-2.919-5.696-5.163-11.5-6.754-17.393"
        color="#fff" />
</svg>